<svg width="320" height="132" viewBox="0 0 320 132" fill="none" xmlns="http://www.w3.org/2000/svg">
<g clip-path="url(#clip0_166_20)">
<path d="M46.442 70.784C46.442 67.044 47.19 63.766 48.686 60.95C50.226 58.09 52.338 55.89 55.022 54.35C57.706 52.81 60.786 52.04 64.262 52.04C68.662 52.04 72.292 53.096 75.152 55.208C78.056 57.276 80.014 60.246 81.026 64.118H72.908C72.248 62.314 71.192 60.906 69.74 59.894C68.288 58.882 66.462 58.376 64.262 58.376C61.182 58.376 58.718 59.476 56.87 61.676C55.066 63.832 54.164 66.868 54.164 70.784C54.164 74.7 55.066 77.758 56.87 79.958C58.718 82.158 61.182 83.258 64.262 83.258C68.618 83.258 71.5 81.344 72.908 77.516H81.026C79.97 81.212 77.99 84.16 75.086 86.36C72.182 88.516 68.574 89.594 64.262 89.594C60.786 89.594 57.706 88.824 55.022 87.284C52.338 85.7 50.226 83.5 48.686 80.684C47.19 77.824 46.442 74.524 46.442 70.784ZM104.298 89.594C100.866 89.594 97.7642 88.824 94.9922 87.284C92.2202 85.7 90.0422 83.5 88.4582 80.684C86.8742 77.824 86.0822 74.524 86.0822 70.784C86.0822 67.088 86.8962 63.81 88.5242 60.95C90.1522 58.09 92.3742 55.89 95.1902 54.35C98.0062 52.81 101.152 52.04 104.628 52.04C108.104 52.04 111.25 52.81 114.066 54.35C116.882 55.89 119.104 58.09 120.732 60.95C122.36 63.81 123.174 67.088 123.174 70.784C123.174 74.48 122.338 77.758 120.666 80.618C118.994 83.478 116.706 85.7 113.802 87.284C110.942 88.824 107.774 89.594 104.298 89.594ZM104.298 83.06C106.234 83.06 108.038 82.598 109.71 81.674C111.426 80.75 112.812 79.364 113.868 77.516C114.924 75.668 115.452 73.424 115.452 70.784C115.452 68.144 114.946 65.922 113.934 64.118C112.922 62.27 111.58 60.884 109.908 59.96C108.236 59.036 106.432 58.574 104.496 58.574C102.56 58.574 100.756 59.036 99.0842 59.96C97.4562 60.884 96.1582 62.27 95.1902 64.118C94.2222 65.922 93.7382 68.144 93.7382 70.784C93.7382 74.7 94.7282 77.736 96.7082 79.892C98.7322 82.004 101.262 83.06 104.298 83.06ZM138.136 40.16V89H130.612V40.16H138.136ZM151.842 47.816C150.478 47.816 149.334 47.354 148.41 46.43C147.486 45.506 147.024 44.362 147.024 42.998C147.024 41.634 147.486 40.49 148.41 39.566C149.334 38.642 150.478 38.18 151.842 38.18C153.162 38.18 154.284 38.642 155.208 39.566C156.132 40.49 156.594 41.634 156.594 42.998C156.594 44.362 156.132 45.506 155.208 46.43C154.284 47.354 153.162 47.816 151.842 47.816ZM155.538 52.634V89H148.014V52.634H155.538ZM162.909 70.652C162.909 67 163.657 63.766 165.153 60.95C166.693 58.134 168.761 55.956 171.357 54.416C173.997 52.832 176.923 52.04 180.135 52.04C182.511 52.04 184.843 52.568 187.131 53.624C189.463 54.636 191.311 56 192.675 57.716V40.16H200.265V89H192.675V83.522C191.443 85.282 189.727 86.734 187.527 87.878C185.371 89.022 182.885 89.594 180.069 89.594C176.901 89.594 173.997 88.802 171.357 87.218C168.761 85.59 166.693 83.346 165.153 80.486C163.657 77.582 162.909 74.304 162.909 70.652ZM192.675 70.784C192.675 68.276 192.147 66.098 191.091 64.25C190.079 62.402 188.737 60.994 187.065 60.026C185.393 59.058 183.589 58.574 181.653 58.574C179.717 58.574 177.913 59.058 176.241 60.026C174.569 60.95 173.205 62.336 172.149 64.184C171.137 65.988 170.631 68.144 170.631 70.652C170.631 73.16 171.137 75.36 172.149 77.252C173.205 79.144 174.569 80.596 176.241 81.608C177.957 82.576 179.761 83.06 181.653 83.06C183.589 83.06 185.393 82.576 187.065 81.608C188.737 80.64 190.079 79.232 191.091 77.384C192.147 75.492 192.675 73.292 192.675 70.784ZM243.477 69.926C243.477 71.29 243.389 72.522 243.213 73.622H215.427C215.647 76.526 216.725 78.858 218.661 80.618C220.597 82.378 222.973 83.258 225.789 83.258C229.837 83.258 232.697 81.564 234.369 78.176H242.487C241.387 81.52 239.385 84.27 236.481 86.426C233.621 88.538 230.057 89.594 225.789 89.594C222.313 89.594 219.189 88.824 216.417 87.284C213.689 85.7 211.533 83.5 209.949 80.684C208.409 77.824 207.639 74.524 207.639 70.784C207.639 67.044 208.387 63.766 209.883 60.95C211.423 58.09 213.557 55.89 216.285 54.35C219.057 52.81 222.225 52.04 225.789 52.04C229.221 52.04 232.279 52.788 234.963 54.284C237.647 55.78 239.737 57.892 241.233 60.62C242.729 63.304 243.477 66.406 243.477 69.926ZM235.623 67.55C235.579 64.778 234.589 62.556 232.653 60.884C230.717 59.212 228.319 58.376 225.459 58.376C222.863 58.376 220.641 59.212 218.793 60.884C216.945 62.512 215.845 64.734 215.493 67.55H235.623ZM264.94 82.268L275.236 52.634H283.222L269.362 89H260.386L246.592 52.634H254.644L264.94 82.268ZM302.109 89.594C299.249 89.594 296.675 89.088 294.387 88.076C292.143 87.02 290.361 85.612 289.041 83.852C287.721 82.048 287.017 80.046 286.929 77.846H294.717C294.849 79.386 295.575 80.684 296.895 81.74C298.259 82.752 299.953 83.258 301.977 83.258C304.089 83.258 305.717 82.862 306.861 82.07C308.049 81.234 308.643 80.178 308.643 78.902C308.643 77.538 307.983 76.526 306.663 75.866C305.387 75.206 303.341 74.48 300.525 73.688C297.797 72.94 295.575 72.214 293.859 71.51C292.143 70.806 290.647 69.728 289.371 68.276C288.139 66.824 287.523 64.91 287.523 62.534C287.523 60.598 288.095 58.838 289.239 57.254C290.383 55.626 292.011 54.35 294.123 53.426C296.279 52.502 298.743 52.04 301.515 52.04C305.651 52.04 308.973 53.096 311.481 55.208C314.033 57.276 315.397 60.114 315.573 63.722H308.049C307.917 62.094 307.257 60.796 306.069 59.828C304.881 58.86 303.275 58.376 301.251 58.376C299.271 58.376 297.753 58.75 296.697 59.498C295.641 60.246 295.113 61.236 295.113 62.468C295.113 63.436 295.465 64.25 296.169 64.91C296.873 65.57 297.731 66.098 298.743 66.494C299.755 66.846 301.251 67.308 303.231 67.88C305.871 68.584 308.027 69.31 309.699 70.058C311.415 70.762 312.889 71.818 314.121 73.226C315.353 74.634 315.991 76.504 316.035 78.836C316.035 80.904 315.463 82.752 314.319 84.38C313.175 86.008 311.547 87.284 309.435 88.208C307.367 89.132 304.925 89.594 302.109 89.594Z" fill="#0F0E17"/>
<path d="M39.3419 39.4449C40.142 39.6029 40.7809 39.8649 41.2514 40.566C41.5853 41.0633 41.748 41.6724 41.6245 42.2631C41.5059 42.8295 41.1524 43.3094 40.6693 43.6227C40.1156 43.9818 39.4764 44.1291 38.8284 43.9985C38.3154 43.9432 37.6749 43.547 37.326 43.1747C36.9144 42.7351 36.6077 42.1197 36.6312 41.509C36.6515 40.9756 36.9291 40.4818 37.32 40.1287C37.866 39.6356 38.6121 39.4031 39.3419 39.4449Z" fill="black"/>
<path d="M39.5364 31.8938C39.8179 31.9163 40.0983 31.9483 40.3776 31.9901C40.6569 32.0318 40.9345 32.0831 41.2105 32.144C41.4863 32.2048 41.7597 32.2751 42.0307 32.3547C42.3019 32.4344 42.57 32.5233 42.835 32.6215C43.0999 32.7196 43.3612 32.8267 43.6189 32.9428C43.8765 33.0589 44.1299 33.1837 44.3789 33.3172C44.6281 33.4508 44.8723 33.5927 45.1116 33.743C45.3509 33.8933 45.5848 34.0517 45.8131 34.218C47.4713 35.449 49.1863 37.6019 50.7955 38.5847C52.7281 39.9221 55.4416 41.2115 57.7427 41.7547C62.8877 42.9696 61.6849 42.6759 68.1852 44.0509C68.8354 44.1884 70.0954 44.565 70.6922 44.7737C70.0457 44.9893 67.8645 44.5289 66.7791 44.4477C65.5994 44.3568 64.4582 44.0517 63.2762 44.0036C60.0079 43.5271 56.6603 43.522 54.493 43.9629C54.1545 44.0317 52.7024 44.4944 52.4193 44.6181C52.1362 44.7417 52.844 44.4326 52.4193 44.6181C51.9946 44.8035 50.2099 45.7516 49.7915 45.9344C49.3731 46.1171 48.1249 47.0556 47.8467 47.3378C44.504 50.7294 44.3057 54.5111 41.8642 58.7696C38.2705 65.038 32.0708 68.5127 25.2326 70.2519C22.7906 70.873 20.2911 71.2797 17.8682 71.9773C16.2581 72.4406 14.6807 73.0785 13.1664 73.7913C11.6299 74.5175 10.1577 75.3554 8.74984 76.3048C8.19057 76.675 7.64468 77.0636 7.11216 77.4707C6.13709 78.2297 4.90861 79.5445 3.72682 79.8451C3.40119 79.9281 3.06356 79.9208 2.77141 79.733C2.44323 79.5221 2.23791 79.1963 2.15082 78.8213C1.73693 77.04 3.40529 72.5334 4.19549 70.8285C4.79448 69.555 5.47616 68.3273 6.24053 67.1455C8.59691 63.4823 12.3324 59.731 16.0201 57.3842C16.6347 56.993 17.4165 56.4493 18.1402 56.3037C18.5214 56.227 18.8914 56.2906 19.2144 56.5126C19.6992 56.8457 20.0504 57.5234 20.1542 58.0903C20.2694 58.7201 20.0108 59.2017 19.5748 59.6401C18.8253 60.3938 17.7968 60.8712 16.9065 61.4408C16.1758 61.9081 15.4759 62.4548 14.8167 63.017C14.2158 63.5315 13.6374 64.07 13.0816 64.6325C12.5257 65.1949 11.9942 65.7793 11.4871 66.3859C10.9801 66.9924 10.4992 67.6189 10.0443 68.2655C9.58945 68.9119 9.16231 69.5761 8.76287 70.2581C8.18607 71.2463 7.73794 72.362 7.0991 73.3004C8.10649 72.6255 9.08472 71.8791 10.1226 71.2541C13.1757 69.4162 16.7105 68.1248 20.2083 67.4442C22.7506 66.9496 25.3607 66.6237 27.8183 65.7844C28.087 65.6911 28.3537 65.5923 28.6184 65.4879C28.883 65.3835 29.1453 65.2737 29.4052 65.1584C29.6652 65.0433 29.9226 64.9228 30.1775 64.7969C30.4324 64.671 30.6845 64.5398 30.9338 64.4035C31.1833 64.2672 31.4298 64.1257 31.6732 63.9792C31.9166 63.8327 32.1569 63.6812 32.394 63.5246C32.6311 63.3681 32.8648 63.2067 33.0952 63.0405C33.3254 62.8743 33.5521 62.7033 33.7753 62.5277C33.9985 62.3521 34.2179 62.172 34.4335 61.9873C34.6491 61.8026 34.8607 61.6134 35.0684 61.4198C35.2761 61.2264 35.4797 61.0287 35.6791 60.8268C35.8786 60.6248 36.0736 60.4188 36.2643 60.2087C36.4552 59.9986 36.6415 59.7846 36.8234 59.5668C37.0053 59.3491 37.1825 59.1276 37.3552 58.9024C37.5278 58.6772 37.6956 58.4485 37.8586 58.2163C38.0217 57.9842 38.1798 57.7487 38.3329 57.5099C38.9534 56.5239 39.4336 55.4357 39.944 54.389C40.655 52.9048 41.2544 51.3512 42.0029 49.8903C42.107 49.6918 42.2154 49.4957 42.328 49.302C42.4406 49.1083 42.5574 48.917 42.6784 48.7283C42.7994 48.5397 42.9245 48.3538 43.0535 48.1705C43.1827 47.9873 43.3158 47.807 43.4526 47.6296C43.5897 47.4521 43.7304 47.2777 43.875 47.1063C44.0197 46.935 44.1679 46.7669 44.3198 46.6021C44.4717 46.4372 44.6272 46.2757 44.7861 46.1175C44.9451 45.9594 45.1075 45.8048 45.2733 45.6538C45.4391 45.5026 45.6081 45.3551 45.7803 45.2114C45.9524 45.0676 46.1276 44.9276 46.306 44.7914C46.4843 44.6553 46.6655 44.5231 46.8495 44.3948C47.0337 44.2665 47.2206 44.1422 47.4101 44.0219C47.5997 43.9017 47.7918 43.7856 47.9864 43.6737C48.1811 43.5618 48.378 43.4542 48.5774 43.3507C48.7768 43.2474 48.9784 43.1484 49.1821 43.0538C49.3858 42.9591 49.5914 42.8688 49.7992 42.7831C50.7031 42.4007 51.658 42.1344 52.5923 41.8345C51.1815 41.5906 49.041 41.0536 47.824 40.3201C47.085 39.8749 46.4749 39.2467 45.8433 38.668C44.0996 37.0698 42.3081 35.7635 39.9107 35.4292C36.7794 34.9926 34.4457 36.3632 32.0301 38.1477C31.3406 38.6571 30.5076 39.1863 29.9746 39.8646C29.4294 40.5586 29.3209 41.7702 28.5907 42.2792C27.8418 42.8009 26.8593 42.1217 26.2387 41.6717C21.0874 37.9374 15.5669 34.2852 9.43658 32.3721C8.07063 31.9459 6.70606 31.6498 5.30168 31.3818C5.66575 32.9635 6.27179 34.5853 7.29812 35.8679C8.28789 37.1048 11.3076 39.0546 12.7687 39.7311C13.7034 40.1638 14.6868 40.4501 15.6565 40.7901C17.1439 41.3112 18.6244 41.858 20.1409 42.2907C21.3321 42.6307 22.6281 42.7888 23.7731 43.2596C24.2586 43.4591 24.6923 43.7402 24.9929 44.1786C25.2689 44.581 25.3969 45.1196 25.2962 45.5989C25.2273 45.9268 25.0373 46.1818 24.754 46.3561C22.6799 47.6319 16.5727 44.8357 14.5171 43.9141C13.7859 43.5861 12.9178 43.0082 12.1385 42.8621C11.9682 42.83 11.889 42.8362 11.7499 42.9313C11.7035 43.0622 11.7117 43.1366 11.7564 43.2687C11.921 43.7565 12.406 44.2738 12.7444 44.6625C15.1491 47.4238 19.3091 49.8731 22.8357 50.805C23.3347 50.9368 23.8412 51.0566 24.3519 51.1324C25.4883 51.3015 26.9309 51.3046 27.9633 51.8226C28.3811 52.0323 28.7393 52.3102 28.8871 52.7685C28.9992 53.116 28.9539 53.4857 28.7803 53.8037C28.5495 54.2264 28.1687 54.466 27.7135 54.5939C25.5214 55.2096 21.6765 54.1852 19.5595 53.3676C18.5846 52.9818 17.6391 52.5338 16.7231 52.0236C13.5451 50.2725 10.7368 47.6858 8.56842 44.7971C7.83971 43.8261 7.18584 42.7909 6.51007 41.7824C4.56991 38.8865 3.09017 36.3946 2.10269 33.0149C1.79272 31.9539 0.972238 29.0848 1.57113 28.0723C1.70738 27.8419 1.85106 27.7211 2.11312 27.6521C3.12894 27.3847 4.58313 27.8188 5.60156 28.009C13.5815 29.4994 18.5507 32.6698 25.3694 36.7706C26.1526 37.2416 26.9733 37.641 27.7574 38.1075C28.2605 37.3823 29.9398 35.7959 30.6642 35.1356C33.221 32.8045 36.0535 31.7277 39.5364 31.8938Z" fill="black"/>
</g>
<defs>
<clipPath id="clip0_166_20">
<rect width="320" height="132" rx="2" fill="white"/>
</clipPath>
</defs>
</svg>
